# xmcd
#
# Track frame offsets: 
#        150
#        19977
#        41857
#        56030
#        74344
#        94005
#        110512
#        132972
#        150149
#        166678
#        186096
#
# Disc length: 2738 seconds
#
# Revision: 5
# Processed by: cddbd v1.5.1PL0 Copyright (c) Steve Scherf et al.
# Submitted via: ExactAudioCopy v0.95a5
#
DISCID=8c0ab00b
DTITLE=胡彦斌 - 文武双全升级版
DYEAR=2003
DGENRE=R&B
TTITLE0=老爸 你别装酷
TTITLE1=梦
TTITLE2=猜
TTITLE3=你记得吗
TTITLE4=目不转睛
TTITLE5=第一次（胡彦斌＋郑中基）
TTITLE6=黑雨（超炫丽网络游戏《命运》主题曲）
TTITLE7=透明人
TTITLE8=昨天是你的生日
TTITLE9=想
TTITLE10=进行式
EXTD=
EXTT0=
EXTT1=
EXTT2=
EXTT3=
EXTT4=
EXTT5=
EXTT6=
EXTT7=
EXTT8=
EXTT9=
EXTT10=
PLAYORDER=
